<mxfile host="Electron" modified="2024-01-18T23:54:38.330Z" agent="Mozilla/5.0 (Windows NT 10.0; Win64; x64) AppleWebKit/537.36 (KHTML, like Gecko) draw.io/22.1.16 Chrome/120.0.6099.109 Electron/28.1.0 Safari/537.36" etag="oNw6tj8_VJqWE0A1N5Jt" version="22.1.16" type="device">
  <diagram name="Page-1" id="KiblyhAG39ZnI-P0pgyY">
    <mxGraphModel dx="1674" dy="956" grid="1" gridSize="10" guides="1" tooltips="1" connect="1" arrows="1" fold="1" page="1" pageScale="1" pageWidth="1100" pageHeight="850" math="0" shadow="0">
      <root>
        <mxCell id="0" />
        <mxCell id="1" parent="0" />
        <mxCell id="s_FMu6DtmCt7_5n1UvDh-39" value="HE" style="edgeStyle=orthogonalEdgeStyle;rounded=0;orthogonalLoop=1;jettySize=auto;html=1;exitX=0.5;exitY=0;exitDx=0;exitDy=0;entryX=0.5;entryY=1;entryDx=0;entryDy=0;" edge="1" parent="1" source="s_FMu6DtmCt7_5n1UvDh-1" target="s_FMu6DtmCt7_5n1UvDh-2">
          <mxGeometry relative="1" as="geometry" />
        </mxCell>
        <mxCell id="s_FMu6DtmCt7_5n1UvDh-1" value="Import HE" style="rounded=0;whiteSpace=wrap;html=1;" vertex="1" parent="1">
          <mxGeometry x="520" y="520" width="120" height="60" as="geometry" />
        </mxCell>
        <mxCell id="s_FMu6DtmCt7_5n1UvDh-40" value="ME" style="edgeStyle=orthogonalEdgeStyle;rounded=0;orthogonalLoop=1;jettySize=auto;html=1;exitX=0.5;exitY=0;exitDx=0;exitDy=0;entryX=0.5;entryY=1;entryDx=0;entryDy=0;" edge="1" parent="1" source="s_FMu6DtmCt7_5n1UvDh-2" target="s_FMu6DtmCt7_5n1UvDh-4">
          <mxGeometry relative="1" as="geometry" />
        </mxCell>
        <mxCell id="s_FMu6DtmCt7_5n1UvDh-2" value="Convert HE to ME" style="rounded=0;whiteSpace=wrap;html=1;" vertex="1" parent="1">
          <mxGeometry x="520" y="400" width="120" height="60" as="geometry" />
        </mxCell>
        <mxCell id="s_FMu6DtmCt7_5n1UvDh-9" value="ME" style="edgeStyle=orthogonalEdgeStyle;rounded=0;orthogonalLoop=1;jettySize=auto;html=1;exitX=1;exitY=0.75;exitDx=0;exitDy=0;entryX=0;entryY=0.75;entryDx=0;entryDy=0;" edge="1" parent="1" source="s_FMu6DtmCt7_5n1UvDh-4" target="s_FMu6DtmCt7_5n1UvDh-8">
          <mxGeometry relative="1" as="geometry" />
        </mxCell>
        <mxCell id="s_FMu6DtmCt7_5n1UvDh-4" value="Guide Thread" style="rounded=0;whiteSpace=wrap;html=1;" vertex="1" parent="1">
          <mxGeometry x="520" y="280" width="120" height="60" as="geometry" />
        </mxCell>
        <mxCell id="s_FMu6DtmCt7_5n1UvDh-6" value="Import Thread" style="rounded=0;whiteSpace=wrap;html=1;" vertex="1" parent="1">
          <mxGeometry x="120" y="280" width="120" height="60" as="geometry" />
        </mxCell>
        <mxCell id="s_FMu6DtmCt7_5n1UvDh-7" value="Thread" style="shape=flexArrow;endArrow=classic;html=1;rounded=0;exitX=1;exitY=0.5;exitDx=0;exitDy=0;entryX=0;entryY=0.5;entryDx=0;entryDy=0;" edge="1" parent="1" source="s_FMu6DtmCt7_5n1UvDh-6" target="s_FMu6DtmCt7_5n1UvDh-21">
          <mxGeometry width="50" height="50" relative="1" as="geometry">
            <mxPoint x="520" y="390" as="sourcePoint" />
            <mxPoint x="580" y="160" as="targetPoint" />
            <mxPoint as="offset" />
          </mxGeometry>
        </mxCell>
        <mxCell id="s_FMu6DtmCt7_5n1UvDh-28" value="ME" style="edgeStyle=orthogonalEdgeStyle;rounded=0;orthogonalLoop=1;jettySize=auto;html=1;exitX=0.5;exitY=0;exitDx=0;exitDy=0;entryX=0.5;entryY=1;entryDx=0;entryDy=0;" edge="1" parent="1" source="s_FMu6DtmCt7_5n1UvDh-8" target="s_FMu6DtmCt7_5n1UvDh-16">
          <mxGeometry relative="1" as="geometry" />
        </mxCell>
        <mxCell id="s_FMu6DtmCt7_5n1UvDh-8" value="Couple Thread and Rope" style="rounded=0;whiteSpace=wrap;html=1;" vertex="1" parent="1">
          <mxGeometry x="720" y="280" width="120" height="60" as="geometry" />
        </mxCell>
        <mxCell id="s_FMu6DtmCt7_5n1UvDh-10" value="Thread" style="shape=flexArrow;endArrow=classic;html=1;rounded=0;exitX=1;exitY=0.25;exitDx=0;exitDy=0;entryX=0;entryY=0.25;entryDx=0;entryDy=0;" edge="1" parent="1" source="s_FMu6DtmCt7_5n1UvDh-4" target="s_FMu6DtmCt7_5n1UvDh-8">
          <mxGeometry width="50" height="50" relative="1" as="geometry">
            <mxPoint x="590" y="230" as="sourcePoint" />
            <mxPoint x="590" y="290" as="targetPoint" />
            <mxPoint as="offset" />
          </mxGeometry>
        </mxCell>
        <mxCell id="s_FMu6DtmCt7_5n1UvDh-15" value="HE" style="edgeStyle=orthogonalEdgeStyle;rounded=0;orthogonalLoop=1;jettySize=auto;html=1;entryX=0.5;entryY=1;entryDx=0;entryDy=0;" edge="1" parent="1" source="s_FMu6DtmCt7_5n1UvDh-13" target="s_FMu6DtmCt7_5n1UvDh-14">
          <mxGeometry relative="1" as="geometry" />
        </mxCell>
        <mxCell id="s_FMu6DtmCt7_5n1UvDh-13" value="Import HE" style="rounded=0;whiteSpace=wrap;html=1;" vertex="1" parent="1">
          <mxGeometry x="1320" y="520" width="120" height="60" as="geometry" />
        </mxCell>
        <mxCell id="s_FMu6DtmCt7_5n1UvDh-19" value="ME" style="edgeStyle=orthogonalEdgeStyle;rounded=0;orthogonalLoop=1;jettySize=auto;html=1;exitX=0.5;exitY=0;exitDx=0;exitDy=0;entryX=0.5;entryY=1;entryDx=0;entryDy=0;" edge="1" parent="1" source="s_FMu6DtmCt7_5n1UvDh-14" target="s_FMu6DtmCt7_5n1UvDh-25">
          <mxGeometry relative="1" as="geometry">
            <mxPoint x="1180" y="340" as="targetPoint" />
          </mxGeometry>
        </mxCell>
        <mxCell id="s_FMu6DtmCt7_5n1UvDh-14" value="Convert HE to ME" style="rounded=0;whiteSpace=wrap;html=1;" vertex="1" parent="1">
          <mxGeometry x="1320" y="400" width="120" height="60" as="geometry" />
        </mxCell>
        <mxCell id="s_FMu6DtmCt7_5n1UvDh-16" value="Export ME" style="rounded=0;whiteSpace=wrap;html=1;" vertex="1" parent="1">
          <mxGeometry x="720" y="160" width="120" height="60" as="geometry" />
        </mxCell>
        <mxCell id="s_FMu6DtmCt7_5n1UvDh-32" value="HE" style="edgeStyle=orthogonalEdgeStyle;rounded=0;orthogonalLoop=1;jettySize=auto;html=1;exitX=0.5;exitY=0;exitDx=0;exitDy=0;entryX=0.5;entryY=1;entryDx=0;entryDy=0;" edge="1" parent="1" source="s_FMu6DtmCt7_5n1UvDh-21" target="s_FMu6DtmCt7_5n1UvDh-31">
          <mxGeometry relative="1" as="geometry">
            <Array as="points">
              <mxPoint x="380" y="270" />
              <mxPoint x="380" y="270" />
            </Array>
          </mxGeometry>
        </mxCell>
        <mxCell id="s_FMu6DtmCt7_5n1UvDh-21" value="Secure Thread" style="rounded=0;whiteSpace=wrap;html=1;" vertex="1" parent="1">
          <mxGeometry x="320" y="280" width="120" height="60" as="geometry" />
        </mxCell>
        <mxCell id="s_FMu6DtmCt7_5n1UvDh-22" value="Thread" style="shape=flexArrow;endArrow=classic;html=1;rounded=0;exitX=1;exitY=0.5;exitDx=0;exitDy=0;entryX=0;entryY=0.5;entryDx=0;entryDy=0;" edge="1" parent="1" source="s_FMu6DtmCt7_5n1UvDh-21" target="s_FMu6DtmCt7_5n1UvDh-4">
          <mxGeometry width="50" height="50" relative="1" as="geometry">
            <mxPoint x="510" y="230" as="sourcePoint" />
            <mxPoint x="520" y="260" as="targetPoint" />
            <mxPoint as="offset" />
          </mxGeometry>
        </mxCell>
        <mxCell id="s_FMu6DtmCt7_5n1UvDh-36" value="HE" style="edgeStyle=orthogonalEdgeStyle;rounded=0;orthogonalLoop=1;jettySize=auto;html=1;exitX=0.5;exitY=0;exitDx=0;exitDy=0;entryX=0.5;entryY=1;entryDx=0;entryDy=0;" edge="1" parent="1" source="s_FMu6DtmCt7_5n1UvDh-23" target="s_FMu6DtmCt7_5n1UvDh-34">
          <mxGeometry relative="1" as="geometry" />
        </mxCell>
        <mxCell id="s_FMu6DtmCt7_5n1UvDh-23" value="Secure Thread" style="rounded=0;whiteSpace=wrap;html=1;" vertex="1" parent="1">
          <mxGeometry x="1120" y="280" width="120" height="60" as="geometry" />
        </mxCell>
        <mxCell id="s_FMu6DtmCt7_5n1UvDh-24" value="ME" style="edgeStyle=orthogonalEdgeStyle;rounded=0;orthogonalLoop=1;jettySize=auto;html=1;exitX=1;exitY=0.75;exitDx=0;exitDy=0;entryX=0;entryY=0.75;entryDx=0;entryDy=0;" edge="1" parent="1" source="s_FMu6DtmCt7_5n1UvDh-25" target="s_FMu6DtmCt7_5n1UvDh-26">
          <mxGeometry relative="1" as="geometry" />
        </mxCell>
        <mxCell id="s_FMu6DtmCt7_5n1UvDh-25" value="Guide Thread" style="rounded=0;whiteSpace=wrap;html=1;" vertex="1" parent="1">
          <mxGeometry x="1320" y="280" width="120" height="60" as="geometry" />
        </mxCell>
        <mxCell id="s_FMu6DtmCt7_5n1UvDh-42" value="ME" style="edgeStyle=orthogonalEdgeStyle;rounded=0;orthogonalLoop=1;jettySize=auto;html=1;exitX=0.5;exitY=0;exitDx=0;exitDy=0;entryX=0.5;entryY=1;entryDx=0;entryDy=0;" edge="1" parent="1" source="s_FMu6DtmCt7_5n1UvDh-26" target="s_FMu6DtmCt7_5n1UvDh-41">
          <mxGeometry relative="1" as="geometry" />
        </mxCell>
        <mxCell id="s_FMu6DtmCt7_5n1UvDh-26" value="Couple Thread and Stiched Rope" style="rounded=0;whiteSpace=wrap;html=1;" vertex="1" parent="1">
          <mxGeometry x="1520" y="280" width="120" height="60" as="geometry" />
        </mxCell>
        <mxCell id="s_FMu6DtmCt7_5n1UvDh-27" value="Thread and Rope" style="shape=flexArrow;endArrow=classic;html=1;rounded=0;exitX=1;exitY=0.25;exitDx=0;exitDy=0;entryX=0;entryY=0.25;entryDx=0;entryDy=0;" edge="1" parent="1" source="s_FMu6DtmCt7_5n1UvDh-25" target="s_FMu6DtmCt7_5n1UvDh-26">
          <mxGeometry width="50" height="50" relative="1" as="geometry">
            <mxPoint x="1390" y="230" as="sourcePoint" />
            <mxPoint x="1390" y="290" as="targetPoint" />
            <mxPoint as="offset" />
          </mxGeometry>
        </mxCell>
        <mxCell id="s_FMu6DtmCt7_5n1UvDh-30" value="HE" style="edgeStyle=orthogonalEdgeStyle;rounded=0;orthogonalLoop=1;jettySize=auto;html=1;exitX=0.5;exitY=0;exitDx=0;exitDy=0;entryX=0.5;entryY=1;entryDx=0;entryDy=0;" edge="1" parent="1" source="s_FMu6DtmCt7_5n1UvDh-29" target="s_FMu6DtmCt7_5n1UvDh-21">
          <mxGeometry relative="1" as="geometry" />
        </mxCell>
        <mxCell id="s_FMu6DtmCt7_5n1UvDh-29" value="Import HE" style="rounded=0;whiteSpace=wrap;html=1;" vertex="1" parent="1">
          <mxGeometry x="320" y="400" width="120" height="60" as="geometry" />
        </mxCell>
        <mxCell id="s_FMu6DtmCt7_5n1UvDh-31" value="Export HE" style="rounded=0;whiteSpace=wrap;html=1;" vertex="1" parent="1">
          <mxGeometry x="320" y="160" width="120" height="60" as="geometry" />
        </mxCell>
        <mxCell id="s_FMu6DtmCt7_5n1UvDh-35" value="HE" style="edgeStyle=orthogonalEdgeStyle;rounded=0;orthogonalLoop=1;jettySize=auto;html=1;exitX=0.5;exitY=0;exitDx=0;exitDy=0;" edge="1" parent="1" source="s_FMu6DtmCt7_5n1UvDh-33" target="s_FMu6DtmCt7_5n1UvDh-23">
          <mxGeometry relative="1" as="geometry" />
        </mxCell>
        <mxCell id="s_FMu6DtmCt7_5n1UvDh-33" value="Import HE" style="rounded=0;whiteSpace=wrap;html=1;" vertex="1" parent="1">
          <mxGeometry x="1120" y="400" width="120" height="60" as="geometry" />
        </mxCell>
        <mxCell id="s_FMu6DtmCt7_5n1UvDh-34" value="Export HE" style="rounded=0;whiteSpace=wrap;html=1;" vertex="1" parent="1">
          <mxGeometry x="1120" y="160" width="120" height="60" as="geometry" />
        </mxCell>
        <mxCell id="s_FMu6DtmCt7_5n1UvDh-38" value="Thread and Rope" style="shape=flexArrow;endArrow=classic;html=1;rounded=0;exitX=1;exitY=0.5;exitDx=0;exitDy=0;entryX=0;entryY=0.5;entryDx=0;entryDy=0;" edge="1" parent="1" source="s_FMu6DtmCt7_5n1UvDh-23" target="s_FMu6DtmCt7_5n1UvDh-25">
          <mxGeometry width="50" height="50" relative="1" as="geometry">
            <mxPoint x="1060" y="490" as="sourcePoint" />
            <mxPoint x="1140" y="490" as="targetPoint" />
            <mxPoint as="offset" />
          </mxGeometry>
        </mxCell>
        <mxCell id="s_FMu6DtmCt7_5n1UvDh-41" value="Export ME" style="rounded=0;whiteSpace=wrap;html=1;" vertex="1" parent="1">
          <mxGeometry x="1520" y="160" width="120" height="60" as="geometry" />
        </mxCell>
        <mxCell id="s_FMu6DtmCt7_5n1UvDh-43" value="Export Stitched Rope" style="rounded=0;whiteSpace=wrap;html=1;" vertex="1" parent="1">
          <mxGeometry x="1720" y="280" width="120" height="60" as="geometry" />
        </mxCell>
        <mxCell id="s_FMu6DtmCt7_5n1UvDh-44" value="HE" style="edgeStyle=orthogonalEdgeStyle;rounded=0;orthogonalLoop=1;jettySize=auto;html=1;exitX=0.5;exitY=0;exitDx=0;exitDy=0;entryX=0.5;entryY=1;entryDx=0;entryDy=0;" edge="1" parent="1" source="s_FMu6DtmCt7_5n1UvDh-45" target="s_FMu6DtmCt7_5n1UvDh-48">
          <mxGeometry relative="1" as="geometry">
            <Array as="points">
              <mxPoint x="980" y="270" />
              <mxPoint x="980" y="270" />
            </Array>
          </mxGeometry>
        </mxCell>
        <mxCell id="s_FMu6DtmCt7_5n1UvDh-45" value="Position Rope" style="rounded=0;whiteSpace=wrap;html=1;" vertex="1" parent="1">
          <mxGeometry x="920" y="280" width="120" height="60" as="geometry" />
        </mxCell>
        <mxCell id="s_FMu6DtmCt7_5n1UvDh-46" value="HE" style="edgeStyle=orthogonalEdgeStyle;rounded=0;orthogonalLoop=1;jettySize=auto;html=1;exitX=0.5;exitY=0;exitDx=0;exitDy=0;entryX=0.5;entryY=1;entryDx=0;entryDy=0;" edge="1" parent="1" source="s_FMu6DtmCt7_5n1UvDh-47" target="s_FMu6DtmCt7_5n1UvDh-45">
          <mxGeometry relative="1" as="geometry" />
        </mxCell>
        <mxCell id="s_FMu6DtmCt7_5n1UvDh-47" value="Import HE" style="rounded=0;whiteSpace=wrap;html=1;" vertex="1" parent="1">
          <mxGeometry x="920" y="400" width="120" height="60" as="geometry" />
        </mxCell>
        <mxCell id="s_FMu6DtmCt7_5n1UvDh-48" value="Export HE" style="rounded=0;whiteSpace=wrap;html=1;" vertex="1" parent="1">
          <mxGeometry x="920" y="160" width="120" height="60" as="geometry" />
        </mxCell>
        <mxCell id="s_FMu6DtmCt7_5n1UvDh-49" value="Import Rope" style="rounded=0;whiteSpace=wrap;html=1;" vertex="1" parent="1">
          <mxGeometry x="720" y="400" width="120" height="60" as="geometry" />
        </mxCell>
        <mxCell id="s_FMu6DtmCt7_5n1UvDh-50" value="Rope" style="shape=flexArrow;endArrow=classic;html=1;rounded=0;exitX=0.5;exitY=0;exitDx=0;exitDy=0;entryX=0.5;entryY=1;entryDx=0;entryDy=0;" edge="1" parent="1" source="s_FMu6DtmCt7_5n1UvDh-49" target="s_FMu6DtmCt7_5n1UvDh-8">
          <mxGeometry width="50" height="50" relative="1" as="geometry">
            <mxPoint x="650" y="305" as="sourcePoint" />
            <mxPoint x="730" y="305" as="targetPoint" />
            <mxPoint as="offset" />
          </mxGeometry>
        </mxCell>
        <mxCell id="s_FMu6DtmCt7_5n1UvDh-51" value="Thread and Rope" style="shape=flexArrow;endArrow=classic;html=1;rounded=0;exitX=1;exitY=0.5;exitDx=0;exitDy=0;entryX=0;entryY=0.5;entryDx=0;entryDy=0;" edge="1" parent="1" source="s_FMu6DtmCt7_5n1UvDh-8" target="s_FMu6DtmCt7_5n1UvDh-45">
          <mxGeometry width="50" height="50" relative="1" as="geometry">
            <mxPoint x="790" y="410" as="sourcePoint" />
            <mxPoint x="790" y="350" as="targetPoint" />
            <mxPoint as="offset" />
          </mxGeometry>
        </mxCell>
        <mxCell id="s_FMu6DtmCt7_5n1UvDh-52" value="Thread and Rope" style="shape=flexArrow;endArrow=classic;html=1;rounded=0;exitX=1;exitY=0.5;exitDx=0;exitDy=0;entryX=0;entryY=0.5;entryDx=0;entryDy=0;" edge="1" parent="1" source="s_FMu6DtmCt7_5n1UvDh-45" target="s_FMu6DtmCt7_5n1UvDh-23">
          <mxGeometry width="50" height="50" relative="1" as="geometry">
            <mxPoint x="850" y="320" as="sourcePoint" />
            <mxPoint x="930" y="320" as="targetPoint" />
            <mxPoint as="offset" />
          </mxGeometry>
        </mxCell>
        <mxCell id="s_FMu6DtmCt7_5n1UvDh-54" value="Stitched Rope" style="shape=flexArrow;endArrow=classic;html=1;rounded=0;entryX=0;entryY=0.5;entryDx=0;entryDy=0;exitX=1;exitY=0.5;exitDx=0;exitDy=0;" edge="1" parent="1" source="s_FMu6DtmCt7_5n1UvDh-26" target="s_FMu6DtmCt7_5n1UvDh-43">
          <mxGeometry width="50" height="50" relative="1" as="geometry">
            <mxPoint x="1650" y="390" as="sourcePoint" />
            <mxPoint x="1530" y="305" as="targetPoint" />
            <mxPoint as="offset" />
          </mxGeometry>
        </mxCell>
      </root>
    </mxGraphModel>
  </diagram>
</mxfile>
